<svg id="Lag_1" data-name="Lag 1" xmlns="http://www.w3.org/2000/svg" viewBox="0 0 609.53 322.84"><defs><style>.cls-1,.cls-11,.cls-12,.cls-13{fill:none;}.cls-1,.cls-12{stroke:#000;}.cls-1,.cls-12,.cls-13{stroke-miterlimit:10;}.cls-2,.cls-6{font-size:21px;font-family:MyriadPro-Regular, Myriad Pro;}.cls-3{letter-spacing:0em;}.cls-4{letter-spacing:0em;}.cls-5{letter-spacing:0em;}.cls-14,.cls-6{fill:blue;}.cls-7{letter-spacing:-0.02em;}.cls-8{letter-spacing:-0.01em;}.cls-9{letter-spacing:0em;}.cls-10{letter-spacing:0em;}.cls-12,.cls-13{stroke-width:2px;}.cls-13{stroke:blue;}</style></defs><title>key-event-timing-example</title><polyline class="cls-1" points="609.53 139.76 483.53 140.76 482.53 77.76 197.53 77.76 198.53 140.76 140.53 140.76"/><polyline class="cls-1" points="609.53 248.76 341.53 249.76 340.53 186.76 250.53 186.76 251.53 249.76 140.53 249.76"/><text class="cls-2" transform="translate(0 108.84)">UP_AR<tspan class="cls-3" x="59.41" y="0">R</tspan><tspan class="cls-4" x="70.77" y="0">OW</tspan></text><text class="cls-2" transform="translate(0 217.84)">DOWN_AR<tspan class="cls-5" x="94.69" y="0">R</tspan><tspan x="106.05" y="0">OW</tspan></text><text class="cls-6" transform="translate(140.53 17.58)">key<tspan class="cls-7" x="30.26" y="0">P</tspan><tspan class="cls-8" x="41.1" y="0">r</tspan><tspan class="cls-9" x="47.75" y="0">essed()</tspan></text><text class="cls-6" transform="translate(418.53 17.58)">key<tspan class="cls-10" x="30.26" y="0">R</tspan><tspan class="cls-9" x="41.64" y="0">eleased()</tspan></text><line class="cls-11" x1="158.03" y1="23.26" x2="193.03" y2="73.26"/><text class="cls-2" transform="translate(589.03 317.59)">t</text><line class="cls-12" x1="141.03" y1="283.26" x2="592.91" y2="285.2"/><polygon points="607.03 285.26 587.09 293.31 591.85 285.2 587.16 277.05 607.03 285.26"/><line class="cls-13" x1="182.03" y1="32.26" x2="189.37" y2="59.62"/><polygon class="cls-14" points="193.03 73.26 180.02 56.15 189.09 58.6 195.72 51.94 193.03 73.26"/><line class="cls-13" x1="468.03" y1="26.26" x2="352.1" y2="164.44"/><polygon class="cls-14" points="343.03 175.26 349.59 154.79 352.78 163.63 362.04 165.24 343.03 175.26"/><line class="cls-13" x1="500.03" y1="26.26" x2="488.76" y2="57.96"/><polygon class="cls-14" points="484.03 71.26 483.03 49.79 489.11 56.96 498.35 55.24 484.03 71.26"/><line class="cls-13" x1="196.03" y1="32.26" x2="240.67" y2="169.83"/><polygon class="cls-14" points="245.03 183.26 231.15 166.84 240.34 168.83 246.62 161.82 245.03 183.26"/></svg>